<svg width="20" height="21" viewBox="0 0 20 21" fill="none" xmlns="http://www.w3.org/2000/svg">
<path d="M3.06944 5.75949C4.26576 5.75949 5.23555 4.78968 5.23555 3.59337C5.23555 2.39705 4.26576 1.42725 3.06944 1.42725C1.87313 1.42725 0.90332 2.39705 0.90332 3.59337C0.90332 4.78968 1.87313 5.75949 3.06944 5.75949ZM7.2809 7.40091V19.4185H11.0122V13.4755C11.0122 11.9074 11.3072 10.3888 13.2516 10.3888C15.1692 10.3888 15.193 12.1816 15.193 13.5746V19.4195H18.9263V12.8291C18.9263 9.59178 18.2293 7.10391 14.4455 7.10391C12.6289 7.10391 11.4112 8.10085 10.9132 9.04432H10.8627V7.40091H7.2809ZM1.20032 7.40091H4.93757V19.4185H1.20032V7.40091Z" fill="#1E1E1E"/>
<path d="M3.06944 5.75949C4.26576 5.75949 5.23555 4.78968 5.23555 3.59337C5.23555 2.39705 4.26576 1.42725 3.06944 1.42725C1.87313 1.42725 0.90332 2.39705 0.90332 3.59337C0.90332 4.78968 1.87313 5.75949 3.06944 5.75949ZM7.2809 7.40091V19.4185H11.0122V13.4755C11.0122 11.9074 11.3072 10.3888 13.2516 10.3888C15.1692 10.3888 15.193 12.1816 15.193 13.5746V19.4195H18.9263V12.8291C18.9263 9.59178 18.2293 7.10391 14.4455 7.10391C12.6289 7.10391 11.4112 8.10085 10.9132 9.04432H10.8627V7.40091H7.2809ZM1.20032 7.40091H4.93757V19.4185H1.20032V7.40091Z" fill="#1E1E1E"/>
</svg>
