<svg width="16" height="16" viewBox="0 0 16 16" fill="none" xmlns="http://www.w3.org/2000/svg">
<path d="M2 7.5V11.5C2 12.6046 2.89543 13.5 4 13.5H12C13.1046 13.5 14 12.6046 14 11.5V7.5" stroke="#808080" stroke-linecap="round"/>
<path d="M8.5 2C8.5 1.72386 8.27614 1.5 8 1.5C7.72386 1.5 7.5 1.72386 7.5 2L8.5 2ZM7.64645 10.3536C7.84171 10.5488 8.15829 10.5488 8.35355 10.3536L11.5355 7.17157C11.7308 6.97631 11.7308 6.65973 11.5355 6.46447C11.3403 6.2692 11.0237 6.2692 10.8284 6.46447L8 9.29289L5.17157 6.46447C4.97631 6.2692 4.65973 6.2692 4.46447 6.46447C4.2692 6.65973 4.2692 6.97631 4.46447 7.17157L7.64645 10.3536ZM8 2L7.5 2L7.5 10H8H8.5L8.5 2H8Z" fill="#808080"/>
</svg>
