<svg width="20" height="20" viewBox="0 0 20 20" fill="none" xmlns="http://www.w3.org/2000/svg">
<rect width="20" height="20" rx="10" fill="#21005D"/>
<path d="M4.16699 15.8337V13.079L12.7225 4.53968C12.8522 4.42085 12.9954 4.32903 13.1523 4.26421C13.3091 4.1994 13.4737 4.16699 13.6462 4.16699C13.8186 4.16699 13.986 4.1994 14.1485 4.26421C14.3109 4.32903 14.4514 4.42625 14.5698 4.55588L15.461 5.46329C15.5906 5.58212 15.6852 5.72255 15.7449 5.88458C15.8045 6.04662 15.8341 6.20866 15.8337 6.3707C15.8337 6.54353 15.8041 6.70838 15.7449 6.86523C15.6857 7.02208 15.591 7.16511 15.461 7.29431L6.92162 15.8337H4.16699ZM13.63 7.2781L14.5374 6.3707L13.63 5.46329L12.7225 6.3707L13.63 7.2781Z" fill="white"/>
</svg>
