<svg width="12" height="12" viewBox="0 0 12 12" fill="none" xmlns="http://www.w3.org/2000/svg">
<path d="M2 1.5H10C10.1326 1.5 10.2598 1.55268 10.3536 1.64645C10.4473 1.74021 10.5 1.86739 10.5 2V2.793C10.5 2.9256 10.4473 3.05275 10.3535 3.1465L7.1465 6.3535C7.05273 6.44725 7.00003 6.5744 7 6.707V9.8595C7 9.9355 6.98267 10.0105 6.94933 10.0788C6.91599 10.1471 6.86752 10.2069 6.80761 10.2537C6.74769 10.3004 6.6779 10.3329 6.60355 10.3486C6.52919 10.3644 6.45222 10.363 6.3785 10.3445L5.3785 10.0945C5.27038 10.0674 5.1744 10.005 5.10583 9.9171C5.03725 9.82923 5 9.72096 5 9.6095V6.707C4.99997 6.5744 4.94727 6.44725 4.8535 6.3535L1.6465 3.1465C1.55273 3.05275 1.50003 2.9256 1.5 2.793V2C1.5 1.86739 1.55268 1.74021 1.64645 1.64645C1.74021 1.55268 1.86739 1.5 2 1.5Z" stroke="#CCCCCC" stroke-linecap="round" stroke-linejoin="round"/>
</svg>
