<svg width="12" height="12" viewBox="0 0 12 12" fill="none" xmlns="http://www.w3.org/2000/svg">
<path fill-rule="evenodd" clip-rule="evenodd" d="M8.48139 8.99842C7.68908 9.67293 6.66208 10.08 5.54 10.08C3.03263 10.08 1 8.04737 1 5.54C1 3.03263 3.03263 1 5.54 1C8.04737 1 10.08 3.03263 10.08 5.54C10.08 6.6553 9.67784 7.67666 9.01062 8.46699L11.1898 10.6462L10.6595 11.1765L8.48139 8.99842ZM9.33 5.54C9.33 7.63316 7.63316 9.33 5.54 9.33C3.44684 9.33 1.75 7.63316 1.75 5.54C1.75 3.44684 3.44684 1.75 5.54 1.75C7.63316 1.75 9.33 3.44684 9.33 5.54Z" fill="#989898"/>
</svg>
